<svg xml:space="preserve" width="200px" height="200px" viewBox="0 0 100 100" y="0" x="0" xmlns="http://www.w3.org/2000/svg" xmlns:xlink="http://www.w3.org/1999/xlink" style="width:100%;height:100%;background-size:initial;background-repeat-y:initial;background-repeat-x:initial;background-position-y:initial;background-position-x:initial;background-origin:initial;background-color:initial;background-clip:initial;background-attachment:initial;">
    <path stroke-miterlimit="10" stroke-width="3.5" stroke="#333" fill="#fff" d="M89.9 34.3c-1-8.6-7.6-15.7-16.1-17.4-4.5-.9-8.7-.2-12.3 1.5-3.1-5.1-8.6-8.5-15-8.5-7.3 0-13.5 4.5-16.1 10.8-2.8-.7-5.9-.7-9.1.5-6.8 2.5-11.4 8.7-11.3 15.9.2 8.9 7.4 16.1 16.3 16.2v32.3c0 2.4 2 4.4 4.4 4.4h36.4c2.4 0 4.4-2 4.4-4.4V56.9C82.7 56 91.2 46 89.9 34.3z" style="stroke:rgb(91, 185, 160);fill:rgb(45, 44, 44);"></path>
    <path d="M34 82.8h29.7" stroke-miterlimit="10" stroke-linecap="round" stroke-width="3.5" stroke="#333" fill="none" style="stroke:rgb(91, 185, 160);animation-play-state:paused"></path>
    <path stroke-miterlimit="10" stroke-width="3.5" stroke="#333" fill="#fff" d="M34 51.5c-2.2 1.1-4.8 1.8-7.5 1.8" style="stroke:rgb(91, 185, 160);fill:rgb(255, 255, 255);animation-play-state:paused"></path>
    <path stroke-miterlimit="10" stroke-width="3.5" stroke="#333" fill="#fff" d="M62.5 55.6c2.3.9 4.7 1.4 7.3 1.4.6 0 1.1 0 1.7-.1" style="stroke:rgb(91, 185, 160);fill:rgb(255, 255, 255);animation-play-state:paused"></path>
    <path d="M40.5 64.2v12.4" stroke-miterlimit="10" stroke-linecap="round" stroke-width="3.5" stroke="#333" fill="none" style="stroke:rgb(91, 185, 160);animation-play-state:paused"></path>
    <path d="M56.7 64.2v12.4" stroke-miterlimit="10" stroke-linecap="round" stroke-width="3.5" stroke="#333" fill="none" style="stroke:rgb(91, 185, 160);animation-play-state:paused"></path>
    <path stroke-miterlimit="10" stroke-width="3.5" stroke="#000" opacity=".2" d="M89.9 34.3C89 27.1 84.2 21 77.7 18.2c1.9 3.1 3.2 6.7 3.6 10.5 1.5 13.8-5.7 25.5-17.6 26.6 0 0 0 34.4-.1 34.6H67c2.4 0 4.4-2 4.4-4.4V56.9C82.7 56 91.2 46 89.9 34.3z" style="stroke:rgb(45, 44, 44);fill:rgb(45, 44, 44);animation-play-state:paused"></path>
    <path stroke-miterlimit="10" stroke-width="3.5" stroke="#000" stroke-linejoin="round" opacity=".2" d="M25.3 44.4c-6.9-.1-12.6-6.5-13.6-14.8-1.1 2.2-1.7 4.8-1.7 7.4.1 8.6 6.9 15.5 15.3 16.1v-8.7z" style="stroke:rgb(45, 44, 44);fill:rgb(45, 44, 44);animation-play-state:paused"></path>
</svg>