<svg class="lds-gear" xmlns="http://www.w3.org/2000/svg" xmlns:xlink="http://www.w3.org/1999/xlink" viewBox="0 0 100 100" preserveAspectRatio="xMidYMid" style="background: none;">
    <g transform="translate(50 50)">
        <g transform="rotate(155.994)">
            <path d="M37.3496987939662 -7 L49.3496987939662 -7 L49.3496987939662 7 L37.3496987939662 7 A38 38 0 0 1 31.359972760794346 21.46047782418268 L31.359972760794346 21.46047782418268 L39.84525413503292 29.94575919842125 L29.94575919842125 39.84525413503292 L21.46047782418268 31.359972760794346 A38 38 0 0 1 7.0000000000000036 37.3496987939662 L7.0000000000000036 37.3496987939662 L7.000000000000004 49.3496987939662 L-6.999999999999999 49.3496987939662 L-7 37.3496987939662 A38 38 0 0 1 -21.46047782418268 31.35997276079435 L-21.46047782418268 31.35997276079435 L-29.94575919842125 39.84525413503292 L-39.84525413503292 29.945759198421253 L-31.359972760794346 21.460477824182682 A38 38 0 0 1 -37.3496987939662 7.000000000000007 L-37.3496987939662 7.000000000000007 L-49.3496987939662 7.000000000000009 L-49.3496987939662 -6.999999999999996 L-37.3496987939662 -6.999999999999997 A38 38 0 0 1 -31.35997276079435 -21.460477824182675 L-31.35997276079435 -21.460477824182675 L-39.845254135032924 -29.945759198421243 L-29.945759198421275 -39.8452541350329 L-21.4604778241827 -31.35997276079433 A38 38 0 0 1 -6.999999999999992 -37.3496987939662 L-6.999999999999992 -37.3496987939662 L-6.999999999999994 -49.3496987939662 L6.999999999999977 -49.3496987939662 L6.999999999999979 -37.3496987939662 A38 38 0 0 1 21.460477824182686 -31.359972760794342 L21.460477824182686 -31.359972760794342 L29.945759198421253 -39.84525413503292 L39.8452541350329 -29.94575919842127 L31.35997276079433 -21.4604778241827 A38 38 0 0 1 37.3496987939662 -6.999999999999995 M0 -20A20 20 0 1 0 0 20 A20 20 0 1 0 0 -20" fill="#ffffff"></path>
        </g>
    </g>
</svg>