<svg xml:space="preserve" width="300px" height="300px" viewBox="0 0 100 100" y="0" x="0" xmlns="http://www.w3.org/2000/svg" id="Layer_1" version="1.1" xmlns:xlink="http://www.w3.org/1999/xlink" style="width:100%;height:100%;background-size:initial;background-repeat-y:initial;background-repeat-x:initial;background-position-y:initial;background-position-x:initial;background-origin:initial;background-color:initial;background-clip:initial;background-attachment:initial">
  <path fill="#333" d="M41.034 66.67c-.019-.491-.049-1.023-.079-1.584-.328-5.96-1.095-19.915 11.304-22.934 1.119-.273 2.116-.383 2.918-.472l.582-.064c4.08-.449 6.687-.796 8.773-2.223 1.773-1.212 3.037-2.95 3.468-4.77.392-1.65.214-3.433-.488-4.89-.297-.618-.861-1.344-2.957-2.476-3.286-1.772-7.564-2.524-13.468-2.381l-.353.009c-3.629.092-7.381.185-10.33.973-6.268 1.676-8.226 6.416-8.765 10.096l-14.7-2.151c1.626-11.112 8.964-19.448 19.629-22.299 4.651-1.243 9.508-1.365 13.794-1.473l.352-.008c8.602-.225 15.237 1.105 20.897 4.158 2.846 1.536 6.904 4.151 9.289 9.106 2.186 4.54 2.739 9.785 1.557 14.766-1.293 5.451-4.681 10.282-9.538 13.604-.482.33-.977.642-1.483.934-2.306 1.335-4.828 2.236-7.425 2.81a43.632 43.632 0 0 1-3.61.625c-.816.11-1.648.05-2.408.41a3.891 3.891 0 0 0-1.698 1.601c-1.038 1.839-.615 4.221-.503 6.232.036.646.174 1.836.196 2.4H41.034z" style="fill:rgb(152, 152, 152)"></path>
  <path fill="#333" d="M58.879 81.012c0 4.964-3.585 8.988-9.807 8.988s-9.807-4.024-9.807-8.988 3.585-8.988 9.807-8.988 9.807 4.024 9.807 8.988z" style="fill:rgb(152, 152, 152)"></path>
</svg>